<?xml version="1.0" ?>
<svg viewBox="0 0 16 16" xmlns="http://www.w3.org/2000/svg">
    <path d="M14.447,3.105l-4-2A1,1,0,0,0,9,2V6a1,1,0,0,0,1.447.895l4-2a1,1,0,0,0,0-1.79Z"/>
    <path d="M14.447,11.105l-4-2A1,1,0,0,0,9,10v4a1,1,0,0,0,1.447.895l4-2a1,1,0,0,0,0-1.79Z"/>
    <path d="M8,3.232A9.01,9.01,0,0,0,1,12v2a1,1,0,0,0,2,0V12A7.01,7.01,0,0,1,8,5.3Z"/>
    <path d="M3.069,4.836A6.981,6.981,0,0,1,3,4V2A1,1,0,0,0,1,2V4a8.94,8.94,0,0,0,.467,2.842A10.234,10.234,0,0,1,3.069,4.836Z"/>
    <path d="M4.95,8.815a6,6,0,0,0-.814,1.994A8.982,8.982,0,0,0,8,12.768V10.705A7,7,0,0,1,4.95,8.815Z"/>
</svg>
